<svg id="logo-nav" width="180px" height="68px" viewBox="0 0 1001 354" version="1.1" xmlns="http://www.w3.org/2000/svg" xmlns:xlink="http://www.w3.org/1999/xlink" xmlns:sketch="http://www.bohemiancoding.com/sketch/ns">
                <g id="text" class="text-svg" transform="translate(370.000000, 128.000000)" fill="#2D2E2B">
                    <path d="M65.831,78.137 C64.033,82.477 61.599,86.249 58.531,89.449 C55.46,92.652 51.865,95.151 47.744,96.947 C43.621,98.744 39.237,99.644 34.59,99.644 C29.766,99.644 25.293,98.723 21.173,96.881 C17.05,95.04 13.455,92.52 10.386,89.318 C7.315,86.118 4.904,82.346 3.151,78.006 C1.396,73.664 0.52,68.995 0.52,63.996 L0.52,0.198 L11.307,0.198 L11.307,40.056 C14.113,36.549 17.533,33.764 21.567,31.702 C25.6,29.643 29.986,28.611 34.722,28.611 C39.457,28.611 43.864,29.511 47.942,31.308 C52.019,33.106 55.591,35.583 58.662,38.74 C61.731,41.897 64.142,45.625 65.897,49.921 C67.65,54.218 68.528,58.911 68.528,63.996 C68.528,69.082 67.628,73.796 65.831,78.137 L65.831,78.137 L65.831,78.137 Z M55.571,54.131 C54.387,51.061 52.763,48.408 50.704,46.172 C48.642,43.936 46.231,42.16 43.469,40.845 C40.707,39.529 37.747,38.871 34.59,38.871 C31.433,38.871 28.473,39.529 25.711,40.845 C22.949,42.16 20.536,43.958 18.476,46.238 C16.415,48.519 14.77,51.17 13.543,54.196 C12.314,57.221 11.702,60.489 11.702,63.996 C11.702,67.504 12.314,70.793 13.543,73.862 C14.77,76.932 16.437,79.629 18.542,81.952 C20.647,84.276 23.08,86.095 25.842,87.41 C28.605,88.726 31.519,89.384 34.59,89.384 C37.747,89.384 40.707,88.726 43.469,87.41 C46.231,86.095 48.642,84.299 50.704,82.017 C52.763,79.738 54.387,77.063 55.571,73.993 C56.755,70.925 57.347,67.593 57.347,63.996 C57.347,60.489 56.755,57.201 55.571,54.131 L55.571,54.131 L55.571,54.131 Z" id="Fill-1"></path>
                    <path d="M125.288,31.314 C129.452,33.203 133.049,35.772 136.074,39.023 C139.1,42.275 141.488,46.074 143.243,50.423 C144.996,54.772 145.874,59.406 145.874,64.325 C145.874,69.245 144.996,73.836 143.243,78.098 C141.488,82.359 139.1,86.113 136.074,89.365 C133.049,92.617 129.452,95.164 125.288,97.009 C121.122,98.853 116.626,99.776 111.805,99.776 C106.981,99.776 102.508,98.853 98.388,97.009 C94.264,95.164 90.669,92.617 87.601,89.365 C84.53,86.113 82.12,82.359 80.366,78.098 C78.611,73.836 77.735,69.245 77.735,64.325 C77.735,59.406 78.611,54.772 80.366,50.423 C82.12,46.074 84.53,42.275 87.601,39.023 C90.669,35.772 94.264,33.203 98.388,31.314 C102.508,29.425 106.981,28.48 111.805,28.48 C116.626,28.48 121.122,29.425 125.288,31.314 L125.288,31.314 L125.288,31.314 Z M120.643,87.081 C123.413,85.811 125.853,84.056 127.964,81.82 C130.075,79.584 131.723,76.976 132.911,73.993 C134.099,71.013 134.693,67.811 134.693,64.391 C134.693,60.97 134.099,57.727 132.911,54.656 C131.723,51.588 130.075,48.913 127.964,46.632 C125.853,44.353 123.413,42.555 120.643,41.239 C117.872,39.923 114.904,39.266 111.739,39.266 C108.571,39.266 105.604,39.923 102.833,41.239 C100.062,42.555 97.646,44.353 95.578,46.632 C93.51,48.913 91.884,51.588 90.696,54.656 C89.508,57.727 88.916,60.97 88.916,64.391 C88.916,67.811 89.508,71.013 90.696,73.993 C91.884,76.976 93.51,79.584 95.578,81.82 C97.646,84.056 100.062,85.811 102.833,87.081 C105.604,88.354 108.571,88.989 111.739,88.989 C114.904,88.989 117.872,88.354 120.643,87.081 L120.643,87.081 L120.643,87.081 Z" id="Fill-2"></path>
                    <path d="M151.268,30.321 L163.107,30.321 L181.785,83.201 L181.917,83.201 L200.596,30.321 L212.435,30.321 L187.836,98.066 L175.866,98.066 L151.268,30.321" id="Fill-3"></path>
                    <path d="M271.431,93.395 C265.86,97.561 259.263,99.644 251.633,99.644 C246.984,99.644 242.6,98.721 238.479,96.877 C234.357,95.031 230.762,92.506 227.693,89.299 C224.622,86.093 222.189,82.336 220.393,78.032 C218.594,73.728 217.696,69.114 217.696,64.193 C217.696,59.273 218.594,54.64 220.393,50.29 C222.189,45.941 224.622,42.164 227.693,38.958 C230.762,35.751 234.357,33.203 238.479,31.314 C242.6,29.425 246.984,28.48 251.633,28.48 C255.403,28.48 258.954,29.034 262.289,30.145 C265.62,31.254 268.645,32.808 271.365,34.806 C274.082,36.803 276.45,39.186 278.468,41.954 C280.484,44.723 282.063,47.817 283.204,51.237 L271.233,51.237 C269.303,47.553 266.673,44.638 263.341,42.489 C260.008,40.341 256.106,39.266 251.633,39.266 C248.476,39.266 245.517,39.923 242.754,41.235 C239.992,42.546 237.579,44.341 235.519,46.614 C233.458,48.887 231.836,51.532 230.653,54.549 C229.468,57.567 228.877,60.781 228.877,64.193 C228.877,67.605 229.468,70.82 230.653,73.836 C231.836,76.854 233.458,79.479 235.519,81.708 C237.579,83.939 239.992,85.688 242.754,86.956 C245.517,88.224 248.476,88.857 251.633,88.857 C256.106,88.857 260.03,87.785 263.407,85.634 C266.782,83.487 269.392,80.57 271.233,76.887 L283.204,76.887 C280.922,83.727 276.998,89.231 271.431,93.395" id="Fill-4"></path>
                    <path d="M339.305,31.314 C343.469,33.203 347.066,35.772 350.091,39.023 C353.117,42.275 355.505,46.074 357.261,50.423 C359.013,54.772 359.891,59.406 359.891,64.325 C359.891,69.245 359.013,73.836 357.261,78.098 C355.505,82.359 353.117,86.113 350.091,89.365 C347.066,92.617 343.469,95.164 339.305,97.009 C335.138,98.853 330.643,99.776 325.821,99.776 C320.998,99.776 316.526,98.853 312.404,97.009 C308.282,95.164 304.687,92.617 301.617,89.365 C298.547,86.113 296.137,82.359 294.383,78.098 C292.628,73.836 291.753,69.245 291.753,64.325 C291.753,59.406 292.628,54.772 294.383,50.423 C296.137,46.074 298.547,42.275 301.617,39.023 C304.687,35.772 308.282,33.203 312.404,31.314 C316.526,29.425 320.998,28.48 325.821,28.48 C330.643,28.48 335.138,29.425 339.305,31.314 L339.305,31.314 L339.305,31.314 Z M334.66,87.081 C337.43,85.811 339.87,84.056 341.981,81.82 C344.092,79.584 345.74,76.976 346.929,73.993 C348.116,71.013 348.71,67.811 348.71,64.391 C348.71,60.97 348.116,57.727 346.929,54.656 C345.74,51.588 344.092,48.913 341.981,46.632 C339.87,44.353 337.43,42.555 334.66,41.239 C331.889,39.923 328.921,39.266 325.756,39.266 C322.589,39.266 319.62,39.923 316.851,41.239 C314.08,42.555 311.663,44.353 309.595,46.632 C307.527,48.913 305.901,51.588 304.713,54.656 C303.525,57.727 302.933,60.97 302.933,64.391 C302.933,67.811 303.525,71.013 304.713,73.993 C305.901,76.976 307.527,79.584 309.595,81.82 C311.663,84.056 314.08,85.811 316.851,87.081 C319.62,88.354 322.589,88.989 325.756,88.989 C328.921,88.989 331.889,88.354 334.66,87.081 L334.66,87.081 L334.66,87.081 Z" id="Fill-5"></path>
                    <path d="M384.487,98.066 L373.306,98.066 L373.306,56.893 C373.306,52.597 374.031,48.717 375.481,45.251 C376.932,41.788 378.909,38.828 381.415,36.372 C383.918,33.918 386.906,32.01 390.38,30.65 C393.852,29.291 397.609,28.611 401.654,28.611 C405.697,28.611 409.454,29.291 412.927,30.65 C416.399,32.01 419.387,33.918 421.893,36.372 C424.396,38.828 426.353,41.788 427.758,45.251 C429.165,48.717 429.869,52.597 429.869,56.893 L429.869,98.066 L418.688,98.066 L418.688,56.498 C418.688,51.414 417.16,47.224 414.101,43.936 C411.042,40.647 406.894,39.003 401.654,39.003 C396.412,39.003 392.24,40.647 389.139,43.936 C386.037,47.224 384.487,51.414 384.487,56.498 L384.487,98.066" id="Fill-6"></path>
                    <path d="M472.226,98.066 C468.279,98.504 464.659,98.284 461.371,97.408 C458.083,96.532 455.262,95.02 452.911,92.87 C450.56,90.722 448.719,88.002 447.386,84.714 C446.054,81.425 445.39,77.633 445.39,73.335 L445.39,15.851 L456.572,15.851 L456.572,30.321 L471.962,30.321 L471.962,40.976 L456.572,40.976 L456.572,73.335 C456.572,76.318 456.987,78.774 457.822,80.702 C458.654,82.632 459.794,84.144 461.242,85.24 C462.689,86.338 464.354,87.081 466.24,87.476 C468.125,87.871 470.121,87.982 472.226,87.805 L472.226,98.066" id="Fill-7"></path>
                    <path d="M486.396,44.396 C488.126,40.538 490.472,37.381 493.433,34.925 C496.392,32.471 499.825,30.738 503.728,29.729 C507.63,28.722 511.818,28.48 516.291,29.006 L516.291,39.398 C509.713,38.785 504.518,40.012 500.703,43.081 C496.888,46.152 494.98,50.974 494.98,57.55 L494.98,98.066 L483.8,98.066 L483.8,57.813 C483.8,52.728 484.665,48.257 486.396,44.396" id="Fill-8"></path>
                    <path d="M570.552,31.314 C574.717,33.203 578.313,35.772 581.339,39.023 C584.364,42.275 586.753,46.074 588.508,50.423 C590.261,54.772 591.139,59.406 591.139,64.325 C591.139,69.245 590.261,73.836 588.508,78.098 C586.753,82.359 584.364,86.113 581.339,89.365 C578.313,92.617 574.717,95.164 570.552,97.009 C566.386,98.853 561.891,99.776 557.069,99.776 C552.246,99.776 547.773,98.853 543.652,97.009 C539.529,95.164 535.934,92.617 532.865,89.365 C529.795,86.113 527.384,82.359 525.631,78.098 C523.876,73.836 523,69.245 523,64.325 C523,59.406 523.876,54.772 525.631,50.423 C527.384,46.074 529.795,42.275 532.865,39.023 C535.934,35.772 539.529,33.203 543.652,31.314 C547.773,29.425 552.246,28.48 557.069,28.48 C561.891,28.48 566.386,29.425 570.552,31.314 L570.552,31.314 L570.552,31.314 Z M565.907,87.081 C568.678,85.811 571.118,84.056 573.229,81.82 C575.339,79.584 576.988,76.976 578.176,73.993 C579.363,71.013 579.958,67.811 579.958,64.391 C579.958,60.97 579.363,57.727 578.176,54.656 C576.988,51.588 575.339,48.913 573.229,46.632 C571.118,44.353 568.678,42.555 565.907,41.239 C563.137,39.923 560.169,39.266 557.004,39.266 C553.836,39.266 550.868,39.923 548.098,41.239 C545.328,42.555 542.91,44.353 540.842,46.632 C538.774,48.913 537.149,51.588 535.961,54.656 C534.773,57.727 534.181,60.97 534.181,64.391 C534.181,67.811 534.773,71.013 535.961,73.993 C537.149,76.976 538.774,79.584 540.842,81.82 C542.91,84.056 545.328,85.811 548.098,87.081 C550.868,88.354 553.836,88.989 557.004,88.989 C560.169,88.989 563.137,88.354 565.907,87.081 L565.907,87.081 L565.907,87.081 Z" id="Fill-9"></path>
                    <path d="M603.897,0.198 L615.079,0.198 L615.079,72.941 C615.079,75.923 615.494,78.379 616.328,80.307 C617.161,82.237 618.301,83.75 619.748,84.845 C621.195,85.943 622.883,86.687 624.813,87.081 C626.74,87.476 628.759,87.63 630.864,87.542 L630.864,98.066 C626.918,98.504 623.3,98.284 620.011,97.408 C616.723,96.532 613.88,95.02 611.484,92.87 C609.087,90.722 607.225,88.002 605.893,84.714 C604.561,81.425 603.897,77.633 603.897,73.335 L603.897,0.198" id="Fill-10"></path>
                </g>
                <g id="bov" transform="translate(26.000000, 88.000000)">
                    <path d="M48.761,138.058 L180.451,138.057 L225.247,110.378 L153.6,33.221 L48.761,138.058" id="heart" class="heart" fill="#86b6e3"></path>
                    <path d="M186.156,181.829 L229.929,111.012 L186.156,138.058 L186.156,181.829 Z M252.525,17.572 L281.789,0.601 L239.997,9.818 C236.015,10.696 233.189,13.967 232.672,17.785 C232.526,18.857 232.553,19.97 232.799,21.087 C233.688,25.117 237.027,27.964 240.904,28.431 C241.288,28.478 241.677,28.502 242.069,28.502 C242.729,28.502 243.398,28.433 244.069,28.285 C248.773,27.248 251.871,22.874 251.443,18.2 L252.525,17.572 Z M244.715,31.215 C243.852,31.405 242.961,31.502 242.069,31.502 C241.565,31.502 241.052,31.471 240.546,31.41 C235.297,30.778 231.007,26.889 229.87,21.733 C229.557,20.316 229.5,18.852 229.699,17.382 C229.992,15.223 230.847,13.233 232.109,11.561 L161.485,27.175 L153.68,28.898 L229.929,111.012 L258.824,64.272 C264.193,55.478 272.422,49.859 281.789,47.997 C281.793,47.943 281.793,47.893 281.796,47.84 C274.59,36.945 265.572,27.36 255.17,19.506 L254.453,19.922 C254.076,25.339 250.164,30.013 244.715,31.215 Z M44.519,138.057 L153.68,28.898 L45.23,52.83 C40.173,53.993 35.189,55.851 30.417,58.477 C24.916,61.505 20.122,65.314 16.07,69.676 C8.668,77.661 8.827,90.166 16.59,97.93 C20.441,101.781 25.561,103.902 31.006,103.902 C34.377,103.902 37.621,103.085 40.518,101.553 C40.128,99.999 40.523,98.289 41.738,97.074 C43.577,95.235 52.606,92.867 52.606,92.867 C52.606,92.867 50.238,101.896 48.399,103.735 C46.686,105.448 43.993,105.545 42.144,104.067 C38.681,105.941 34.846,106.89 31.006,106.89 C25.017,106.89 19.028,104.611 14.469,100.051 C9.341,94.923 7.097,87.986 7.737,81.275 C-1.193,97.718 -1.904,118.185 7.615,135.845 L32.969,181.829 L44.519,138.057 Z M198.91,181.83 L194.297,174.365 L189.683,181.829 L198.91,181.83 Z M38.132,174.022 L36.065,181.829 L45.722,181.829 L38.132,174.022 Z M263.925,62.216 L272.127,63.824 L279.551,51.663 C273.413,53.487 268.021,57.114 263.925,62.216 Z" id="body" class="body" fill="#6ba9dd"></path>
                </g>
              </svg>